#N canvas 204 175 450 300 12;
#X obj 9 128 phasor~;
#X obj 9 152 cos~;
#X msg 121 36 0;
#X obj 53 37 loadbang;
#X obj 60 214 metro 10;
#X obj 60 244 snapshot~;
#X obj 60 267 outlet;
#X obj 121 12 inlet sync;
#X obj 9 13 inlet freq;
#X obj 9 76 f \$1;
#N canvas 0 23 450 300 minmax 0;
#X obj 12 13 inlet;
#X obj 12 132 outlet;
#X obj 12 37 min 20;
#X obj 12 84 max 0.01;
#X floatatom 12 61 5 0 0 0 - - -;
#X floatatom 12 108 5 0 0 0 - - -;
#X connect 0 0 2 0;
#X connect 2 0 4 0;
#X connect 3 0 5 0;
#X connect 4 0 3 0;
#X connect 5 0 1 0;
#X restore 9 102 pd minmax;
#X obj 9 37 t b f;
#X obj 213 12 inlet depth;
#X obj 9 196 *~;
#X obj 60 189 loadbang;
#X text 177 119 todo - add wave selector;
#N canvas 0 23 450 300 minmax 0;
#X obj 12 13 inlet;
#X obj 12 132 outlet;
#X obj 12 37 min 20;
#X obj 12 84 max 0.01;
#X floatatom 12 61 5 0 0 0 - - -;
#X floatatom 12 108 5 0 0 0 - - -;
#X connect 0 0 2 0;
#X connect 2 0 4 0;
#X connect 3 0 5 0;
#X connect 4 0 3 0;
#X connect 5 0 1 0;
#X restore 213 36 pd minmax;
#X connect 0 0 1 0;
#X connect 1 0 13 0;
#X connect 2 0 0 1;
#X connect 3 0 9 0;
#X connect 4 0 5 0;
#X connect 5 0 6 0;
#X connect 7 0 2 0;
#X connect 8 0 11 0;
#X connect 9 0 10 0;
#X connect 10 0 0 0;
#X connect 11 0 9 0;
#X connect 11 1 9 1;
#X connect 12 0 16 0;
#X connect 13 0 5 0;
#X connect 14 0 4 0;
#X connect 16 0 13 1;
