#N canvas 0 23 1280 755 12;
#X obj 114 123 vsl 15 80 0.01 5 0 0 empty empty A 5 -10 0 10 -262144
-1 -1 700 1;
#X obj 141 123 vsl 15 80 0.01 5 0 0 empty empty D 5 -10 0 10 -262144
-1 -1 800 1;
#X obj 168 123 vsl 15 80 0.01 5 0 0 empty empty S 5 -10 0 10 -262144
-1 -1 500 1;
#X obj 195 123 vsl 15 80 0.01 5 0 0 empty empty R 5 -10 0 10 -262144
-1 -1 800 1;
#X obj 229 122 hsl 50 15 0.1 1 0 0 empty empty Attack_Vol -2 -8 0 10
-262144 -1 -1 4900 1;
#X obj 229 191 hsl 50 15 0 1 0 0 empty empty Decay_Vol -2 -8 0 10 -262144
-1 -1 1300 1;
#X obj 69 264 * 1000;
#X obj 122 264 * 1000;
#X obj 175 264 * 1000;
#X obj 49 414 pack f f f f f;
#X obj 47 74 bng 15 250 50 0 empty empty empty 17 7 0 10 -262144 -1
-1;
#X msg 49 438 \$2 \$3 \, \$5 \$4 \$3;
#X obj 49 670 vline~;
#X obj 49 700 outlet~;
#X obj 261 542 delay;
#X obj 261 400 +;
#X floatatom 314 420 5 0 0 0 - - -;
#X floatatom 69 288 5 0 0 0 - - -;
#X floatatom 122 288 5 0 0 0 - - -;
#X floatatom 175 288 5 0 0 0 - - -;
#X obj 259 369 t b f;
#X obj 261 566 bng 15 250 50 0 empty empty empty 17 7 0 10 -262144
-1 -1;
#X obj 259 469 +;
#X obj 265 427 t b f;
#X floatatom 303 490 10 0 0 0 - - -;
#X obj 259 493 t b f;
#X obj 233 264 * 1000;
#X floatatom 233 288 5 0 0 0 - - -;
#X obj 47 50 inlet;
#X obj 182 598 pack f f;
#X msg 182 622 0 \$2;
#X floatatom 114 211 3 0 0 0 - - -;
#X floatatom 141 211 3 0 0 0 - - -;
#X floatatom 168 211 3 0 0 0 - - -;
#X floatatom 195 211 3 0 0 0 - - -;
#X floatatom 226 142 5 0 0 0 - - -;
#X floatatom 226 211 5 0 0 0 - - -;
#X obj 322 589 t b f;
#X obj 322 620 +;
#X floatatom 322 644 10 0 0 0 - - -;
#X obj 318 699 outlet;
#X text 385 700 total envelope length;
#X text 111 48 todo: document in abstraction \, create help file;
#X connect 0 0 6 0;
#X connect 0 0 31 0;
#X connect 1 0 7 0;
#X connect 1 0 32 0;
#X connect 2 0 8 0;
#X connect 2 0 33 0;
#X connect 3 0 26 0;
#X connect 3 0 34 0;
#X connect 4 0 9 1;
#X connect 4 0 35 0;
#X connect 5 0 9 4;
#X connect 5 0 36 0;
#X connect 6 0 9 2;
#X connect 6 0 17 0;
#X connect 6 0 15 0;
#X connect 7 0 9 3;
#X connect 7 0 18 0;
#X connect 7 0 20 0;
#X connect 8 0 19 0;
#X connect 8 0 23 0;
#X connect 9 0 11 0;
#X connect 10 0 9 0;
#X connect 10 0 0 0;
#X connect 10 0 5 0;
#X connect 10 0 4 0;
#X connect 10 0 3 0;
#X connect 10 0 2 0;
#X connect 10 0 1 0;
#X connect 11 0 12 0;
#X connect 12 0 13 0;
#X connect 14 0 21 0;
#X connect 15 0 16 0;
#X connect 15 0 22 0;
#X connect 20 0 15 0;
#X connect 20 1 15 1;
#X connect 21 0 29 0;
#X connect 22 0 24 0;
#X connect 22 0 25 0;
#X connect 22 0 38 0;
#X connect 23 0 22 0;
#X connect 23 1 22 1;
#X connect 25 0 14 0;
#X connect 25 1 14 0;
#X connect 26 0 27 0;
#X connect 26 0 37 0;
#X connect 27 0 29 1;
#X connect 28 0 10 0;
#X connect 29 0 30 0;
#X connect 30 0 12 0;
#X connect 37 0 38 0;
#X connect 37 1 38 1;
#X connect 38 0 39 0;
#X connect 38 0 40 0;
#X coords 0 -1 1 1 200 140 2 100 100;
