#N canvas 407 326 636 300 12;
#X obj 13 222 line~;
#X obj 13 254 outlet~;
#X obj 94 145 delay;
#X obj 94 169 pack 0 f;
#X obj 13 14 inlet trigger;
#X obj 126 93 * 1000;
#X obj 280 93 * 1000;
#X obj 13 169 pack 1 f;
#X obj 97 255 print attack;
#X obj 200 255 print decay;
#X obj 126 69 f \$1;
#X obj 280 69 f \$2;
#X obj 140 39 loadbang;
#X obj 295 39 loadbang;
#X obj 126 14 inlet attack-time-s;
#X obj 280 14 inlet decay-time-s;
#X connect 0 0 1 0;
#X connect 2 0 3 0;
#X connect 3 0 0 0;
#X connect 3 0 9 0;
#X connect 4 0 7 0;
#X connect 4 0 2 0;
#X connect 5 0 7 1;
#X connect 5 0 2 1;
#X connect 6 0 3 1;
#X connect 7 0 0 0;
#X connect 7 0 8 0;
#X connect 10 0 5 0;
#X connect 11 0 6 0;
#X connect 12 0 10 0;
#X connect 13 0 11 0;
#X connect 14 0 10 0;
#X connect 15 0 11 0;
