#N canvas 192 216 542 346 12;
#X obj 16 22 inlet~;
#X obj 18 255 outlet~;
#X obj 16 132 effects/later~;
#X obj 337 79 hsl 70 15 0 1 0 0 empty empty Decay 5 8 0 10 -262144
-1 -1 0 1;
#X obj 337 103 hsl 70 15 60 6000 1 0 empty empty LowPassHz 5 8 0 10
-262144 -1 -1 0 1;
#X obj 337 127 hsl 70 15 60 6000 1 0 empty empty HiPassHz 5 8 0 10
-262144 -1 -1 0 1;
#X floatatom 334 33 5 1 500 0 - - -;
#X obj 334 56 hradio 15 1 0 5 empty empty empty 0 -8 0 10 -262144 -258113
-1 4;
#X obj 126 158 t f f b;
#X obj 149 204 f -1;
#X obj 149 270 f 16;
#X obj 215 270 f 8;
#X obj 282 269 f 4;
#X obj 348 269 f 2;
#X obj 415 269 f 1;
#X obj 149 238 route 0 1 2 3 4, f 48;
#X text 383 34 bpm;
#X msg 149 294 div \$1;
#X msg 215 294 div \$1;
#X msg 282 293 div \$1;
#X msg 348 293 div \$1;
#X msg 415 293 div \$1;
#X msg 92 26 bpm \$1;
#X msg 120 53 decay \$1;
#X msg 138 82 lo \$1;
#X msg 163 106 hi \$1;
#X floatatom 430 54 5 0 0 0 - - -;
#X text 410 54 1/;
#X floatatom 430 78 5 0 0 0 - - -;
#X floatatom 430 101 5 0 0 0 - - -;
#X floatatom 430 125 5 0 0 0 - - -;
#X connect 0 0 2 0;
#X connect 2 0 1 0;
#X connect 3 0 23 0;
#X connect 3 0 28 0;
#X connect 4 0 24 0;
#X connect 4 0 29 0;
#X connect 5 0 25 0;
#X connect 5 0 30 0;
#X connect 6 0 22 0;
#X connect 7 0 8 0;
#X connect 8 0 9 1;
#X connect 8 1 9 0;
#X connect 8 2 9 0;
#X connect 9 0 15 0;
#X connect 10 0 17 0;
#X connect 10 0 26 0;
#X connect 11 0 18 0;
#X connect 11 0 26 0;
#X connect 12 0 19 0;
#X connect 12 0 26 0;
#X connect 13 0 20 0;
#X connect 13 0 26 0;
#X connect 14 0 21 0;
#X connect 14 0 26 0;
#X connect 15 0 10 0;
#X connect 15 1 11 0;
#X connect 15 2 12 0;
#X connect 15 3 13 0;
#X connect 15 4 14 0;
#X connect 17 0 2 1;
#X connect 18 0 2 1;
#X connect 19 0 2 1;
#X connect 20 0 2 1;
#X connect 21 0 2 1;
#X connect 22 0 2 1;
#X connect 23 0 2 1;
#X connect 24 0 2 1;
#X connect 25 0 2 1;
#X coords 0 -1 1 1 150 125 2 325 25;
