#N canvas 0 23 422 193 12;
#X obj 8 8 inlet~;
#X obj 24 108 delwrite~ \$0-haas-buffer 50;
#X obj 236 108 delread~ \$0-haas-buffer;
#X obj 236 4 inlet offset-ms;
#X obj 236 158 outlet~ right;
#X obj 8 158 outlet~ left;
#N canvas 0 23 450 300 minmax 0;
#X obj 14 81 outlet;
#X obj 14 7 inlet;
#X obj 14 33 min 30;
#X obj 14 57 max 1;
#X connect 1 0 2 0;
#X connect 2 0 3 0;
#X connect 3 0 0 0;
#X restore 236 81 pd minmax;
#X obj 236 55 f \$1;
#X obj 246 29 loadbang;
#X connect 0 0 1 0;
#X connect 0 0 5 0;
#X connect 2 0 4 0;
#X connect 3 0 7 0;
#X connect 6 0 2 0;
#X connect 7 0 6 0;
#X connect 8 0 7 0;
