#N canvas 0 23 930 450 12;
#X obj 25 17 inlet~;
#N canvas 360 365 450 300 minmax 0;
#X obj 14 81 outlet;
#X obj 14 7 inlet;
#X obj 14 33 min 1;
#X obj 14 57 max 0.1;
#X connect 1 0 2 0;
#X connect 2 0 3 0;
#X connect 3 0 0 0;
#X restore 583 79 pd minmax;
#N canvas 381 252 450 300 minmax 0;
#X obj 14 81 outlet;
#X obj 14 7 inlet;
#X obj 14 57 max 1;
#X obj 14 33 min 500;
#X connect 1 0 3 0;
#X connect 2 0 0 0;
#X connect 3 0 2 0;
#X restore 425 77 pd minmax;
#N canvas 361 272 450 300 minmax 0;
#X obj 14 81 outlet;
#X obj 14 7 inlet;
#X obj 14 33 min 6000;
#X obj 14 57 max 60;
#X connect 1 0 2 0;
#X connect 2 0 3 0;
#X connect 3 0 0 0;
#X restore 662 80 pd minmax;
#N canvas 0 23 450 300 minmax 0;
#X obj 14 81 outlet;
#X obj 14 7 inlet;
#X obj 14 33 min 6000;
#X obj 14 57 max 60;
#X connect 1 0 2 0;
#X connect 2 0 3 0;
#X connect 3 0 0 0;
#X restore 740 81 pd minmax;
#X obj 425 17 inlet settings;
#X obj 91 168 delwrite~ \$0-delayed-buffer 30000;
#X obj 25 109 +~;
#X obj 415 167 delread~ \$0-delayed-buffer;
#X obj 415 133 modules/timediv;
#N canvas 381 252 450 300 minmax 0;
#X obj 14 81 outlet;
#X obj 14 7 inlet;
#X obj 14 57 max 1;
#X obj 14 33 min 16;
#X connect 1 0 3 0;
#X connect 2 0 0 0;
#X connect 3 0 2 0;
#X restore 504 77 pd minmax;
#X msg 504 101 clear;
#X obj 415 259 hip~;
#X obj 415 232 lop~;
#X obj 415 207 *~;
#X obj 583 103 t b f;
#X obj 425 46 route bpm div decay lo hi, f 57;
#X obj 27 397 outlet~;
#X obj 27 345 +~;
#X text 41 52 delay with time division \, low & hipass filters and
attenuation on feedback signal;
#X connect 0 0 7 0;
#X connect 1 0 15 0;
#X connect 2 0 9 1;
#X connect 3 0 13 1;
#X connect 4 0 12 1;
#X connect 5 0 16 0;
#X connect 7 0 6 0;
#X connect 7 0 18 0;
#X connect 8 0 14 0;
#X connect 9 0 8 0;
#X connect 10 0 11 0;
#X connect 10 0 9 0;
#X connect 11 0 6 0;
#X connect 12 0 7 1;
#X connect 12 0 18 1;
#X connect 13 0 12 0;
#X connect 14 0 13 0;
#X connect 15 0 14 0;
#X connect 15 1 14 1;
#X connect 16 0 2 0;
#X connect 16 1 10 0;
#X connect 16 2 1 0;
#X connect 16 3 3 0;
#X connect 16 4 4 0;
#X connect 18 0 17 0;
