#N canvas 0 23 757 410 12;
#X obj 36 221 delread~ \$0-pp-r;
#X obj 728 225 delread~ \$0-pp-l;
#X obj 226 55 * 1000;
#X obj 226 80 t b f;
#X msg 226 104 clear;
#N canvas 0 23 450 300 minmax 0;
#X obj 14 81 outlet;
#X obj 14 7 inlet;
#X obj 14 33 min 1;
#X obj 14 57 max 0.1;
#X connect 1 0 2 0;
#X connect 2 0 3 0;
#X connect 3 0 0 0;
#X restore 355 37 pd minmax;
#X obj 42 152 delwrite~ \$0-pp-r 2000;
#X obj 729 153 delwrite~ \$0-pp-l 2000;
#N canvas 0 23 450 300 minmax 0;
#X obj 14 81 outlet;
#X obj 14 7 inlet;
#X obj 14 33 min 2;
#X obj 14 57 max 0.1;
#X connect 1 0 2 0;
#X connect 2 0 3 0;
#X connect 3 0 0 0;
#X restore 226 34 pd minmax;
#X obj 18 343 outlet~ left;
#X obj 710 347 outlet~ right;
#X obj 42 92 +~;
#X obj 728 90 +~;
#X obj 35 318 +~;
#X obj 18 290 *~ 0.5;
#X obj 70 290 *~ 0.5;
#X obj 727 324 +~;
#X obj 710 296 *~ 0.5;
#X obj 762 296 *~ 0.5;
#N canvas 0 23 450 300 minmax 0;
#X obj 14 81 outlet;
#X obj 14 7 inlet;
#X obj 14 33 min 1;
#X obj 14 57 max 0;
#X connect 1 0 2 0;
#X connect 2 0 3 0;
#X connect 3 0 0 0;
#X restore 461 38 pd minmax;
#N canvas 0 23 450 300 minmax 0;
#X obj 14 81 outlet;
#X obj 14 7 inlet;
#X obj 14 33 min 1;
#X obj 14 57 max 0;
#X connect 1 0 2 0;
#X connect 2 0 3 0;
#X connect 3 0 0 0;
#X restore 549 39 pd minmax;
#X obj 461 62 t b f;
#X obj 549 63 t b f;
#X obj 110 265 *~;
#X obj 648 272 *~;
#X obj 290 3 route speed decay dry wet;
#X obj 288 -26 inlet settings;
#X obj 18 13 inlet~ signal;
#X connect 0 0 15 0;
#X connect 0 0 23 0;
#X connect 1 0 18 0;
#X connect 1 0 24 0;
#X connect 2 0 3 0;
#X connect 3 0 4 0;
#X connect 3 1 1 0;
#X connect 3 1 0 0;
#X connect 4 0 6 0;
#X connect 4 0 7 0;
#X connect 5 0 23 1;
#X connect 5 0 24 1;
#X connect 8 0 2 0;
#X connect 11 0 6 0;
#X connect 12 0 7 0;
#X connect 13 0 9 0;
#X connect 14 0 13 0;
#X connect 15 0 13 1;
#X connect 16 0 10 0;
#X connect 17 0 16 0;
#X connect 18 0 16 1;
#X connect 19 0 21 0;
#X connect 20 0 22 0;
#X connect 21 0 14 0;
#X connect 21 0 17 0;
#X connect 21 1 14 1;
#X connect 21 1 17 1;
#X connect 22 0 18 0;
#X connect 22 0 15 0;
#X connect 22 1 18 1;
#X connect 22 1 15 1;
#X connect 23 0 12 1;
#X connect 24 0 11 1;
#X connect 25 0 8 0;
#X connect 25 1 5 0;
#X connect 25 2 19 0;
#X connect 25 3 20 0;
#X connect 26 0 25 0;
#X connect 27 0 11 0;
#X connect 27 0 14 0;
#X connect 27 0 17 0;
