#N canvas 535 192 414 323 12;
#X obj 65 71 inlet;
#X obj 65 126 f \$1;
#X obj 65 150 t b f;
#X msg 65 174 60000;
#X obj 65 201 /;
#X obj 65 247 outlet;
#X obj 65 101 max 1;
#X obj 123 100 loadbang;
#X floatatom 65 225 5 0 0 0 - - -;
#X connect 0 0 6 0;
#X connect 1 0 2 0;
#X connect 2 0 3 0;
#X connect 2 1 4 1;
#X connect 3 0 4 0;
#X connect 4 0 5 0;
#X connect 4 0 8 0;
#X connect 6 0 1 0;
#X connect 7 0 1 0;
