#N canvas 507 233 597 434 12;
#X obj 225 13 inlet max;
#X obj 31 15 inlet ctrl;
#X obj 31 39 route bang reset;
#X obj 121 197 %;
#X obj 300 13 loadbang;
#X obj 85 106 + 1;
#X floatatom 86 133 5 0 0 0 - - -;
#X obj 121 226 outlet;
#X obj 225 102 + 1;
#X floatatom 300 61 5 0 0 0 - - -;
#X obj 31 106 f 0;
#X obj 300 37 f \$1;
#X msg 85 69 0;
#X connect 0 0 8 0;
#X connect 1 0 2 0;
#X connect 2 0 10 0;
#X connect 2 1 12 0;
#X connect 3 0 7 0;
#X connect 4 0 11 0;
#X connect 5 0 10 1;
#X connect 8 0 3 1;
#X connect 10 0 5 0;
#X connect 10 0 3 0;
#X connect 10 0 6 0;
#X connect 11 0 8 0;
#X connect 11 0 9 0;
#X connect 12 0 10 0;
