#N canvas 172 203 450 300 12;
#X obj 21 15 inlet seconds;
#X obj 103 74 samplerate~;
#X obj 69 39 loadbang;
#X obj 11 102 * 1.5;
#X obj 52 149 *;
#X obj 103 98 t b f;
#X obj 52 173 outlet;
#X obj 21 39 t b f;
#X text 148 26 M >= 0.15*t60*f8 --- mode density of at least .15*time
in seconds * sample rate;
#X obj 11 78 f \$1;
#X connect 0 0 7 0;
#X connect 1 0 5 0;
#X connect 2 0 1 0;
#X connect 2 0 9 0;
#X connect 3 0 4 0;
#X connect 4 0 6 0;
#X connect 5 0 4 0;
#X connect 5 1 4 1;
#X connect 7 0 1 0;
#X connect 7 1 9 0;
#X connect 9 0 3 0;
