#N canvas 218 174 457 359 12;
#X obj 14 13 timediv;
#X text 76 13 - time division object;
#X floatatom 171 296 5 0 0 0 - - -;
#X obj 122 296 metro;
#X obj 122 271 tgl 15 0 empty empty empty 17 7 0 10 -262144 -1 -1 1
1;
#X obj 122 320 bng 15 250 50 0 empty empty empty 17 7 0 10 -262144
-1 -1;
#X msg 181 175 8;
#X msg 190 197 16;
#X msg 151 109 1;
#X msg 163 131 2;
#X msg 172 153 4;
#X text 183 109 whole note;
#X text 198 131 half note;
#X text 208 153 quarter note;
#X text 218 174 eigth note;
#X text 227 196 sixteenth note;
#X text 13 43 outputs float representing a beat division in ms when
given a bmp in the right inlet and a divsion of time in the left inlet.
;
#X msg 235 237 120;
#X obj 154 264 timediv 4 60;
#X text 267 236 bpm;
#X connect 3 0 5 0;
#X connect 4 0 3 0;
#X connect 6 0 18 0;
#X connect 7 0 18 0;
#X connect 8 0 18 0;
#X connect 9 0 18 0;
#X connect 10 0 18 0;
#X connect 17 0 18 1;
#X connect 18 0 2 0;
#X connect 18 0 3 1;
