#N canvas 506 130 474 358 12;
#X obj 290 126 t b b f;
#X obj 290 160 f 60000;
#X obj 290 184 /;
#X obj 290 12 inlet bpm;
#X obj 82 188 t b f;
#X obj 68 244 /;
#X obj 40 188 t b f;
#X obj 26 244 /;
#X obj 168 188 t b f;
#X obj 125 188 t b f;
#X obj 111 244 /;
#X obj 125 160 f 1;
#X obj 154 244 *;
#X obj 168 160 f 2;
#X obj 82 160 f 2;
#X obj 40 160 f 4;
#X obj 8 272 f;
#X obj 50 272 f;
#X obj 93 272 f;
#X obj 136 272 f;
#X obj 8 12 inlet time-division;
#X obj 8 101 route 16 8 4 2 1, f 31;
#X obj 211 188 t b f;
#X obj 197 244 *;
#X obj 179 272 f;
#X obj 211 160 f 4;
#X obj 93 324 outlet;
#X obj 8 126 t b b;
#X obj 50 126 t b b;
#X obj 93 126 t b b;
#X obj 136 126 t b b;
#X obj 179 126 t b b;
#X obj 304 41 loadbang;
#X obj 23 42 loadbang;
#X obj 23 70 f \$1;
#X obj 304 69 f \$2;
#X text 318 184 output ms == quarter;
#X connect 0 0 2 0;
#X connect 0 1 1 0;
#X connect 0 2 2 1;
#X connect 1 0 2 0;
#X connect 2 0 5 0;
#X connect 2 0 10 0;
#X connect 2 0 12 0;
#X connect 2 0 7 0;
#X connect 2 0 23 0;
#X connect 3 0 0 0;
#X connect 4 0 5 0;
#X connect 4 1 5 1;
#X connect 5 0 17 1;
#X connect 6 0 7 0;
#X connect 6 1 7 1;
#X connect 7 0 16 1;
#X connect 8 0 12 0;
#X connect 8 1 12 1;
#X connect 9 0 10 0;
#X connect 9 1 10 1;
#X connect 10 0 18 1;
#X connect 11 0 9 0;
#X connect 12 0 19 1;
#X connect 13 0 8 0;
#X connect 14 0 4 0;
#X connect 15 0 6 0;
#X connect 16 0 26 0;
#X connect 17 0 26 0;
#X connect 18 0 26 0;
#X connect 19 0 26 0;
#X connect 20 0 21 0;
#X connect 21 0 27 0;
#X connect 21 1 28 0;
#X connect 21 2 29 0;
#X connect 21 3 30 0;
#X connect 21 4 31 0;
#X connect 22 0 23 0;
#X connect 22 1 23 1;
#X connect 23 0 24 1;
#X connect 24 0 26 0;
#X connect 25 0 22 0;
#X connect 27 0 16 0;
#X connect 27 1 15 0;
#X connect 28 0 17 0;
#X connect 28 1 14 0;
#X connect 29 0 18 0;
#X connect 29 1 11 0;
#X connect 30 0 19 0;
#X connect 30 1 13 0;
#X connect 31 0 24 0;
#X connect 31 1 25 0;
#X connect 32 0 35 0;
#X connect 33 0 34 0;
#X connect 34 0 21 0;
#X connect 35 0 0 0;
