#N canvas 603 155 638 487 12;
#X obj 28 16 inlet~;
#X obj 28 108 +~;
#X obj 101 224 *~;
#X obj 28 292 +~;
#X obj 28 327 outlet~;
#X obj 105 61 delwrite~ \$0-apf-buffer \$1;
#X obj 306 229 *~;
#X obj 306 37 f \$2;
#X obj 241 12 loadbang;
#X obj 306 62 delread~ \$0-apf-buffer;
#X obj 306 12 inlet delay-time-ms;
#X obj 537 13 inlet gain;
#X obj 472 13 loadbang;
#X obj 537 48 f 0.7;
#X obj 482 104 t b f;
#X obj 537 104 t b f;
#X text 349 229 feedback scaling;
#X text 130 226 feedforward scaling;
#X obj 482 80 * -1;
#X connect 0 0 1 0;
#X connect 0 0 2 0;
#X connect 0 0 5 0;
#X connect 1 0 3 0;
#X connect 2 0 3 1;
#X connect 3 0 4 0;
#X connect 6 0 1 1;
#X connect 7 0 9 0;
#X connect 8 0 7 0;
#X connect 9 0 6 0;
#X connect 10 0 7 0;
#X connect 11 0 13 0;
#X connect 12 0 13 0;
#X connect 13 0 15 0;
#X connect 13 0 18 0;
#X connect 14 0 6 0;
#X connect 14 1 6 1;
#X connect 15 0 2 0;
#X connect 15 1 2 1;
#X connect 18 0 14 0;
