#N canvas 41 312 450 300 12;
#X obj 45 36 inlet~;
#X obj 239 35 inlet gain;
#X obj 239 77 * -1;
#X obj 45 76 *~;
#X obj 239 104 *~;
#X obj 45 100 +~;
#X obj 122 155 delwrite~ \$0-fbcf-buffer \$1;
#X obj 122 181 delread~ \$0-fbcf-buffer \$1;
#X obj 45 210 outlet~;
#X connect 0 0 3 0;
#X connect 1 0 2 0;
#X connect 1 0 3 1;
#X connect 2 0 4 1;
#X connect 3 0 5 0;
#X connect 4 0 5 1;
#X connect 5 0 6 0;
#X connect 5 0 8 0;
#X connect 7 0 4 0;
