#N canvas 164 120 481 203 12;
#X obj 6 6 inlet~;
#X obj 56 6 inlet signal-gain;
#X obj 6 63 *~;
#X obj 6 92 +~;
#X obj 6 152 outlet~ filtered-signal;
#X obj 45 32 delread~ \$0-fbc-buffer \$1;
#X obj 46 128 delwrite~ \$0-fbc-buffer \$1;
#X obj 45 62 lop~;
#X obj 183 6 inlet post-delay-lop-scaling;
#X connect 0 0 2 0;
#X connect 1 0 2 1;
#X connect 2 0 3 0;
#X connect 3 0 4 0;
#X connect 3 0 6 0;
#X connect 5 0 7 0;
#X connect 7 0 3 1;
#X connect 8 0 7 1;
