#N canvas 0 23 880 552 12;
#X obj 9 13 inlet~;
#X obj 9 133 *~;
#X obj 9 231 +~;
#X obj 9 331 +~;
#X obj 9 429 +~;
#X obj 46 198 *~;
#X obj 47 296 *~;
#X obj 47 395 *~;
#X obj 331 43 f 1;
#X obj 218 160 / 2;
#X obj 227 259 / 3;
#X obj 229 360 / 4;
#X obj 331 12 inlet tap-scaling;
#X obj 9 485 outlet~;
#X obj 555 13 loadbang;
#X obj 464 12 inlet speed;
#X obj 464 89 * 1000;
#X obj 464 40 f \$1;
#X obj 425 207 * 2;
#X obj 449 306 * 3;
#X obj 416 108 * 1;
#X obj 211 11 bng 15 250 50 0 empty empty empty 17 7 0 10 -262144 -1
-1;
#X msg 211 31 clear;
#X text 506 42 clear delay line when speed changes;
#X text 536 65 min 0.25 max 5 log slider for speed;
#N canvas 0 23 816 510 minmax 0;
#X obj 19 73 inlet;
#X obj 19 97 min 5;
#X obj 19 121 max 0.25;
#X obj 19 145 outlet;
#X text 17 13 helper subpatch to limit speed input and align it to
delay line length. mostly here to save space;
#X text 20 50 min 0.25 max 5 - use log slider for speed;
#X connect 0 0 1 0;
#X connect 1 0 2 0;
#X connect 2 0 3 0;
#X restore 464 64 pd minmax;
#X obj 42 61 delwrite~ \$0-tdl-2 15000;
#X obj 46 159 delread~ \$0-tdl-2;
#X obj 47 259 delread~ \$0-tdl-2;
#X obj 47 359 delread~ \$0-tdl-2;
#X connect 0 0 1 0;
#X connect 0 0 26 0;
#X connect 1 0 2 0;
#X connect 2 0 3 0;
#X connect 3 0 4 0;
#X connect 4 0 13 0;
#X connect 5 0 2 1;
#X connect 6 0 3 1;
#X connect 7 0 4 1;
#X connect 8 0 9 0;
#X connect 8 0 10 0;
#X connect 8 0 11 0;
#X connect 8 0 1 1;
#X connect 9 0 5 1;
#X connect 10 0 6 1;
#X connect 11 0 7 1;
#X connect 12 0 8 0;
#X connect 14 0 17 0;
#X connect 15 0 17 0;
#X connect 16 0 18 0;
#X connect 16 0 19 0;
#X connect 16 0 20 0;
#X connect 17 0 21 0;
#X connect 17 0 25 0;
#X connect 18 0 28 0;
#X connect 19 0 29 0;
#X connect 20 0 27 0;
#X connect 21 0 22 0;
#X connect 22 0 26 0;
#X connect 25 0 16 0;
#X connect 27 0 5 0;
#X connect 28 0 6 0;
#X connect 29 0 7 0;
