#N canvas 0 23 450 300 12;
#X obj 71 124 *;
#X obj 153 71 f 4;
#X obj 105 11 inlet;
#X obj 25 70 f 3.14159;
#X obj 105 35 t b b f;
#X obj 110 162 *;
#X obj 101 71 pow 2;
#X text 148 159 4*pir^2;
#X text 11 123 pi*r^2;
#X obj 110 210 outlet surface-area;
#X connect 0 0 5 0;
#X connect 1 0 5 1;
#X connect 2 0 4 0;
#X connect 3 0 0 0;
#X connect 4 0 3 0;
#X connect 4 1 1 0;
#X connect 4 2 6 0;
#X connect 5 0 9 0;
#X connect 6 0 0 1;
