#N canvas 0 23 450 300 12;
#X obj 101 71 pow 3;
#X obj 71 124 *;
#X obj 153 71 f 4;
#X obj 153 96 / 3;
#X obj 105 11 inlet;
#X obj 25 70 f 3.14159;
#X obj 105 35 t b b f;
#X obj 110 210 outlet vol;
#X text 198 89 4/3;
#X text 148 159 (4/3)*pi*r^3;
#X text 11 123 pi*r^3;
#X obj 110 162 *;
#X connect 0 0 1 1;
#X connect 1 0 11 0;
#X connect 2 0 3 0;
#X connect 3 0 11 1;
#X connect 4 0 6 0;
#X connect 5 0 1 0;
#X connect 6 0 5 0;
#X connect 6 1 2 0;
#X connect 6 2 0 0;
#X connect 11 0 7 0;
